<mxfile host="app.diagrams.net" modified="2024-03-19T07:15:43.614Z" agent="Mozilla/5.0 (Windows NT 10.0; Win64; x64) AppleWebKit/537.36 (KHTML, like Gecko) Chrome/122.0.0.0 Safari/537.36" etag="VmG_7dNke8YZwbgbHD1s" version="24.0.7" type="github">
  <diagram name="第 1 页" id="LsWW6O-D7fb_G-EvKzW0">
    <mxGraphModel dx="794" dy="492" grid="1" gridSize="10" guides="1" tooltips="1" connect="1" arrows="1" fold="1" page="1" pageScale="1" pageWidth="827" pageHeight="1169" math="1" shadow="0">
      <root>
        <mxCell id="0" />
        <mxCell id="1" parent="0" />
        <mxCell id="8nxpcvyhnvPq0a0zDjA1-1" value="" style="outlineConnect=0;dashed=0;verticalLabelPosition=bottom;verticalAlign=top;align=center;html=1;shape=mxgraph.aws3.office_building;fillColor=#f8cecc;strokeColor=#b85450;gradientColor=#FFCCCC;" vertex="1" parent="1">
          <mxGeometry x="150" y="610" width="100" height="140" as="geometry" />
        </mxCell>
      </root>
    </mxGraphModel>
  </diagram>
</mxfile>
